<svg width="286" height="55" viewBox="0 0 286 55" fill="none" xmlns="http://www.w3.org/2000/svg">
<path d="M1.36543 47.9172C1.4327 47.8499 1.51341 47.8163 1.60892 47.8163H8.28138L8.27331 46.5571H1.60892C1.16499 46.5571 0.786973 46.7145 0.472184 47.028C0.157395 47.3414 0 47.7181 0 48.1607V53.2027C0 53.6439 0.157395 54.0219 0.472184 54.3354C0.786973 54.6488 1.16499 54.8049 1.60892 54.8049H8.28138V53.5471H1.60892C1.51341 53.5471 1.4327 53.5134 1.36543 53.4462C1.29682 53.3789 1.26319 53.2982 1.26319 53.2027V48.1607C1.26319 48.0652 1.29682 47.9844 1.36543 47.9172Z" fill="#F8FAFC"/>
<path d="M48.3431 46.5571H46.9104L47.0785 46.8006V50.1153H41.9141V46.5571H40.4828L40.6509 46.8006V54.8049H42.0998L41.9141 54.5614V51.3731H47.0785V54.8049H48.5287L48.3431 54.5614V46.5571Z" fill="#F8FAFC"/>
<path d="M86.0371 46.5571H84.5964L81.0153 54.5614L80.7624 54.8049H82.3888L83.0372 53.3116H87.5869L88.2353 54.8049H89.8442L89.6169 54.5614L86.0371 46.5571ZM83.5847 52.0444L85.312 48.0678L87.0394 52.0444H83.5847Z" fill="#F8FAFC"/>
<path d="M130.346 51.6583C130.346 51.2951 130.23 50.9682 130 50.6776C130.23 50.3871 130.346 50.0615 130.346 49.7037V48.1607C130.346 47.7181 130.188 47.3414 129.873 47.028C129.559 46.7145 129.179 46.5571 128.735 46.5571H122.072L122.063 47.8163H128.735C128.831 47.8163 128.913 47.8499 128.98 47.9172C129.047 47.9844 129.081 48.0652 129.081 48.1607V49.7037C129.081 49.7992 129.047 49.8799 128.98 49.9472C128.913 50.0144 128.831 50.0481 128.735 50.0481H122.063V54.8049H123.512L123.327 54.5614V51.3153H128.735C128.831 51.3153 128.913 51.3476 128.98 51.4108C129.047 51.4754 129.081 51.5561 129.081 51.6503V54.8049H130.522L130.346 54.5614V51.6583Z" fill="#F8FAFC"/>
<path d="M169.562 50.0481H166.949V51.3059H169.562C169.657 51.3059 169.738 51.3395 169.807 51.4068C169.874 51.474 169.908 51.5561 169.908 51.6503V53.2027C169.908 53.2982 169.874 53.3789 169.807 53.4462C169.738 53.5134 169.657 53.5471 169.562 53.5471H164.346C164.251 53.5471 164.17 53.5134 164.103 53.4462C164.034 53.3789 164.001 53.2982 164.001 53.2027V48.1607C164.001 48.0652 164.034 47.9844 164.103 47.9172C164.17 47.8499 164.251 47.8163 164.346 47.8163H171.019V46.5571H164.346C163.902 46.5571 163.524 46.7145 163.21 47.028C162.895 47.3414 162.737 47.7181 162.737 48.1607V53.2027C162.737 53.6439 162.895 54.0219 163.21 54.3354C163.524 54.6488 163.902 54.8049 164.346 54.8049H169.562C170.006 54.8049 170.385 54.6488 170.699 54.3354C171.013 54.0219 171.171 53.6439 171.171 53.2027V51.6503C171.171 51.209 171.013 50.831 170.699 50.5176C170.385 50.2041 170.006 50.0481 169.562 50.0481Z" fill="#F8FAFC"/>
<path d="M204.814 46.5571H203.383L203.551 46.8006V54.8049H205L204.814 54.5614V46.5571Z" fill="#F8FAFC"/>
<path d="M245.086 46.5571H243.653L243.821 46.8006V52.8166L238.682 46.5827L238.657 46.6082V46.5571H237.224L237.394 46.8006V54.8049H238.842L238.657 54.5614V48.5373L243.796 54.7712L243.821 54.7551V54.8049H245.27L245.086 54.5614V46.5571Z" fill="#F8FAFC"/>
<path d="M284.329 50.0481H281.717V51.3059H284.329C284.425 51.3059 284.505 51.3395 284.573 51.4068C284.64 51.474 284.673 51.5561 284.673 51.6503V53.2027C284.673 53.2982 284.64 53.3789 284.573 53.4462C284.505 53.5134 284.425 53.5471 284.329 53.5471H279.114C279.018 53.5471 278.936 53.5134 278.869 53.4462C278.801 53.3789 278.768 53.2982 278.768 53.2027V48.1607C278.768 48.0652 278.801 47.9844 278.869 47.9172C278.936 47.8499 279.018 47.8163 279.114 47.8163H285.786V46.5571H279.114C278.67 46.5571 278.29 46.7145 277.975 47.028C277.662 47.3414 277.505 47.7181 277.505 48.1607V53.2027C277.505 53.6439 277.662 54.0219 277.975 54.3354C278.29 54.6488 278.67 54.8049 279.114 54.8049H284.329C284.772 54.8049 285.151 54.6488 285.466 54.3354C285.781 54.0219 285.938 53.6439 285.938 53.2027V51.6503C285.938 51.209 285.781 50.831 285.466 50.5176C285.151 50.2041 284.772 50.0481 284.329 50.0481Z" fill="#F8FAFC"/>
<path d="M19.0268 3.18624V1.92035C19.0268 1.48315 18.6757 1.09033 18.1941 1.09033H0.865857C0.40847 1.11724 0.0815735 1.49929 0.0815735 1.92035V4.01088H18.2909C18.7228 3.96245 19.0268 3.59385 19.0268 3.18624Z" fill="#F8FAFC"/>
<path d="M27.5395 28.7318H3.45816L3.40435 18.0895H18.147C18.5855 18.0895 18.9797 17.7397 18.9797 17.2595V15.9936C18.9797 15.5564 18.5855 15.1636 18.147 15.1636H3.40435V15.1582H0.0815735V30.8277C0.0815735 31.2636 0.432685 31.6577 0.914286 31.6577H27.5395C28.0225 31.6577 28.3736 31.2636 28.3736 30.8277V29.5618C28.3736 29.1246 28.0225 28.7318 27.5395 28.7318Z" fill="#F8FAFC"/>
<path d="M42.4043 30.8274L42.4151 7.02713V2.24341L41.3483 0.921026C41.2111 0.751524 41.0053 0.65332 40.7887 0.65332H40.0353C39.5968 0.65332 39.2026 1.00174 39.2026 1.43895V30.8274C39.2026 31.2632 39.5968 31.6574 40.0353 31.6574H41.5703C42.0532 31.6574 42.4043 31.2632 42.4043 30.8274Z" fill="#F8FAFC"/>
<path d="M63.3662 1.09033H61.8312C61.3483 1.09033 60.9972 1.48315 60.9972 1.92035V25.1946H60.9097L44.5582 4.90682V9.69458C50.5136 17.0975 56.469 24.5031 62.4245 31.9074C62.52 32.0258 62.6653 32.0944 62.8173 32.0944H63.3662C63.8047 32.0944 64.1989 31.746 64.1989 31.3088V1.92035C64.1989 1.48315 63.8047 1.09033 63.3662 1.09033Z" fill="#F8FAFC"/>
<path d="M82.9722 1.0984L82.8793 1.09033H82.8282C82.204 1.11993 81.8785 1.67283 82.1341 2.22573L95.2705 31.3747V23.7444L86.042 3.29117C85.4851 2.06026 84.312 1.22486 82.9722 1.0984Z" fill="#F8FAFC"/>
<path d="M109.895 1.09033L109.806 1.09706C108.512 1.1993 107.373 1.99838 106.835 3.18489L97.4139 23.9556V31.3828L110.64 2.22573C110.904 1.65803 110.553 1.09033 109.895 1.09033Z" fill="#F8FAFC"/>
<path d="M131.165 1.09033H129.365C128.945 1.11724 128.577 1.49929 128.577 1.92035V17.2912L131.998 13.885V1.92035C131.998 1.48315 131.603 1.09033 131.165 1.09033Z" fill="#F8FAFC"/>
<path d="M128.577 30.8279C128.577 31.2638 128.972 31.6579 129.411 31.6579H131.165C131.603 31.6579 131.998 31.2638 131.998 30.8279V16.9019L128.577 20.308V30.8279Z" fill="#F8FAFC"/>
<path d="M171.117 24.2337C171.117 19.1688 167.302 16.9411 161.381 14.5398C158.444 13.3224 156.428 11.9933 155.731 10.0225H152.328C152.903 13.8564 155.662 15.6093 159.934 17.4658C164.977 19.5617 167.608 21.3522 167.608 24.3656C167.608 26.9417 165.284 29.1681 161.732 29.1681C157.83 29.1681 154.628 26.1117 154.321 25.8494C153.706 25.3261 153.225 25.6758 152.786 26.2435C152.567 26.5045 152.348 26.8112 152.128 27.0722C151.69 27.7637 151.921 28.1215 152.213 28.3986L152.264 28.4457C152.272 28.4538 152.28 28.4605 152.29 28.4686L152.341 28.513L152.391 28.5574C152.961 29.0807 156.47 32.094 161.645 32.094C166.82 32.094 171.117 28.7753 171.117 24.2337Z" fill="#F8FAFC"/>
<path d="M161.512 3.57925C164.187 3.57925 166.95 5.41283 167.257 5.58771C167.959 5.98053 168.397 5.80564 168.792 5.1949C168.968 4.93257 169.143 4.6272 169.319 4.36488C169.845 3.53485 169.319 3.01155 169.055 2.87972C169.055 2.87972 169.043 2.87164 169.02 2.8555L168.992 2.83801C168.525 2.53129 165.502 0.65332 161.557 0.65332C154.991 0.65332 152.507 4.91105 152.24 7.8881H155.492C155.725 6.06124 157.263 3.57925 161.512 3.57925Z" fill="#F8FAFC"/>
<path d="M193.221 1.09033H191.422C191.002 1.11724 190.633 1.49929 190.633 1.92035V17.2912L194.054 13.885V1.92035C194.054 1.48315 193.66 1.09033 193.221 1.09033Z" fill="#F8FAFC"/>
<path d="M190.633 30.8279C190.633 31.2638 191.029 31.6579 191.467 31.6579H193.221C193.66 31.6579 194.054 31.2638 194.054 30.8279V16.9019L190.633 20.308V30.8279Z" fill="#F8FAFC"/>
<path d="M262.59 0.65332H261.838C261.399 0.65332 261.004 1.00174 261.004 1.43895V30.8274C261.004 31.2632 261.399 31.6574 261.838 31.6574H263.373C263.854 31.6574 264.205 31.2632 264.205 30.8274L264.216 7.02713V2.24341L263.149 0.921026C263.012 0.751524 262.808 0.65332 262.59 0.65332Z" fill="#F8FAFC"/>
<path d="M285.167 1.09033H283.632C283.149 1.09033 282.798 1.48315 282.798 1.92035V25.1946H282.711L266.359 4.90682V9.69458C272.315 17.0975 278.27 24.5031 284.227 31.9074C284.322 32.0258 284.466 32.0944 284.618 32.0944H285.167C285.606 32.0944 286 31.746 286 31.3088V1.92035C286 1.48315 285.606 1.09033 285.167 1.09033Z" fill="#F8FAFC"/>
<path d="M231.468 2.22593C231.691 1.44703 231.222 0.629114 230.419 0.400421C229.614 0.170383 228.781 0.615662 228.557 1.39456C228.332 2.17347 228.802 2.99004 229.606 3.22007C230.409 3.44877 231.243 3.00483 231.468 2.22593Z" fill="#00C1E3"/>
<path d="M225.686 0.0487749C225.035 -0.13687 224.36 0.223658 224.178 0.854582C223.997 1.48551 224.377 2.14603 225.028 2.33302C225.68 2.51866 226.354 2.15813 226.535 1.52721C226.717 0.896285 226.337 0.235765 225.686 0.0487749Z" fill="#00C1E3"/>
<path d="M222.325 2.32177C222.469 1.81999 222.168 1.29534 221.65 1.14736C221.133 0.999383 220.598 1.28592 220.452 1.78636C220.308 2.28814 220.611 2.81279 221.128 2.96076C221.644 3.10874 222.181 2.8222 222.325 2.32177Z" fill="#00C1E3"/>
<path d="M217.836 4.55742C218.343 4.70271 218.869 4.42155 219.01 3.93053C219.152 3.43951 218.856 2.92294 218.348 2.77899C217.841 2.63371 217.315 2.91486 217.174 3.40588C217.033 3.8969 217.329 4.41213 217.836 4.55742Z" fill="#00C1E3"/>
<path d="M216.27 5.97594C216.38 5.5912 216.149 5.18762 215.751 5.07462C215.354 4.96027 214.942 5.18089 214.832 5.56564C214.72 5.95038 214.953 6.35396 215.35 6.4683C215.747 6.5813 216.16 6.36068 216.27 5.97594Z" fill="#00C1E3"/>
<path d="M239.314 7.18989C239.503 7.2437 239.7 7.13877 239.752 6.95581C239.806 6.77286 239.694 6.57914 239.505 6.52533C239.316 6.47152 239.12 6.57645 239.066 6.75941C239.014 6.94371 239.124 7.13608 239.314 7.18989Z" fill="#F8FAFC"/>
<path d="M238.44 5.85828C238.476 5.72779 238.398 5.59192 238.265 5.55425C238.13 5.51524 237.992 5.59057 237.954 5.71972C237.918 5.84886 237.996 5.98608 238.129 6.02374C238.264 6.06141 238.402 5.98742 238.44 5.85828Z" fill="#F8FAFC"/>
<path d="M213.678 22.1726C213.903 21.395 213.432 20.5771 212.629 20.3471C211.824 20.1184 210.992 20.5637 210.767 21.3426C210.542 22.1201 211.013 22.938 211.816 23.1667C212.621 23.3968 213.453 22.9515 213.678 22.1726Z" fill="#00C1E3"/>
<path d="M214.132 24.5801C213.482 24.3931 212.807 24.7537 212.626 25.3846C212.444 26.0155 212.825 26.6774 213.476 26.863C214.127 27.0487 214.801 26.6881 214.982 26.0572C215.164 25.4276 214.783 24.7658 214.132 24.5801Z" fill="#00C1E3"/>
<path d="M216.825 27.7766C216.308 27.63 215.773 27.9166 215.629 28.417C215.483 28.9174 215.786 29.4434 216.303 29.5914C216.821 29.738 217.356 29.4515 217.5 28.9511C217.644 28.4506 217.343 27.9246 216.825 27.7766Z" fill="#00C1E3"/>
<path d="M219.92 29.8254C219.411 29.6801 218.886 29.9613 218.744 30.4523C218.603 30.9433 218.9 31.4599 219.407 31.6038C219.914 31.7491 220.44 31.4679 220.582 30.9769C220.723 30.4859 220.427 29.9693 219.92 29.8254Z" fill="#00C1E3"/>
<path d="M223.021 31.1801C222.625 31.0657 222.213 31.2864 222.101 31.6711C221.991 32.0558 222.224 32.4594 222.621 32.5724C223.017 32.6868 223.429 32.4662 223.541 32.0814C223.651 31.6967 223.42 31.2931 223.021 31.1801Z" fill="#00C1E3"/>
<path d="M225.555 31.5364C225.237 31.4449 224.909 31.6211 224.82 31.9279C224.731 32.2359 224.917 32.5574 225.234 32.6489C225.552 32.739 225.88 32.5642 225.969 32.2561C226.058 31.9494 225.872 31.6265 225.555 31.5364Z" fill="#00C1E3"/>
<path d="M227.707 31.6736C227.461 31.6037 227.205 31.7396 227.137 31.979C227.068 32.2171 227.212 32.4687 227.458 32.5386C227.704 32.6086 227.96 32.4727 228.03 32.2333C228.099 31.9952 227.955 31.7436 227.707 31.6736Z" fill="#00C1E3"/>
<path d="M229.607 31.6079C229.417 31.554 229.221 31.659 229.168 31.8419C229.116 32.0249 229.226 32.2186 229.416 32.2724C229.606 32.3262 229.802 32.2213 229.854 32.0383C229.907 31.854 229.797 31.6617 229.607 31.6079Z" fill="#00C1E3"/>
<path d="M231.139 31.279C231.004 31.24 230.866 31.3139 230.828 31.4444C230.79 31.5736 230.87 31.7094 231.003 31.7485C231.137 31.7861 231.276 31.7121 231.314 31.583C231.35 31.4525 231.272 31.3166 231.139 31.279Z" fill="#00C1E3"/>
<path d="M213.973 8.40281C214.291 8.49429 214.62 8.31806 214.708 8.01134C214.796 7.70328 214.611 7.38042 214.295 7.29029C213.977 7.20015 213.648 7.37504 213.559 7.6831C213.471 7.98982 213.656 8.31268 213.973 8.40281Z" fill="#00C1E3"/>
<path d="M212.961 10.1309C213.207 10.2009 213.463 10.0637 213.531 9.82556C213.6 9.5861 213.456 9.33589 213.21 9.26593C212.964 9.19463 212.708 9.33185 212.638 9.56996C212.569 9.80941 212.713 10.0596 212.961 10.1309Z" fill="#00C1E3"/>
<path d="M212.223 11.7504C212.413 11.8042 212.609 11.6993 212.662 11.5164C212.714 11.3321 212.604 11.1397 212.414 11.0859C212.225 11.0321 212.03 11.137 211.976 11.32C211.923 11.5029 212.034 11.6966 212.223 11.7504Z" fill="#00C1E3"/>
<path d="M211.89 13.1927C212.025 13.2317 212.163 13.1577 212.201 13.0272C212.237 12.8981 212.159 12.7622 212.026 12.7232C211.891 12.6855 211.753 12.7595 211.715 12.8887C211.678 13.0192 211.757 13.155 211.89 13.1927Z" fill="#00C1E3"/>
<path d="M239.936 24.9839C239.132 24.7539 238.299 25.1992 238.074 25.9781C237.85 26.7556 238.319 27.5735 239.124 27.8036C239.928 28.0323 240.761 27.587 240.986 26.8081C241.209 26.0305 240.739 25.2126 239.936 24.9839Z" fill="#F8FAFC"/>
<path d="M242.804 21.8974C242.153 21.7118 241.479 22.0723 241.297 22.7032C241.116 23.3328 241.497 23.9947 242.146 24.1803C242.797 24.3659 243.473 24.0054 243.654 23.3758C243.836 22.7449 243.455 22.0831 242.804 21.8974Z" fill="#F8FAFC"/>
<path d="M243.829 18.3227C243.312 18.1747 242.777 18.4612 242.632 18.9616C242.488 19.4621 242.79 19.9881 243.307 20.1361C243.824 20.284 244.36 19.9975 244.504 19.4957C244.648 18.9953 244.347 18.4693 243.829 18.3227Z" fill="#F8FAFC"/>
<path d="M243.922 14.7349C243.415 14.591 242.889 14.8722 242.748 15.3632C242.606 15.8542 242.902 16.3694 243.409 16.5147C243.917 16.66 244.443 16.3788 244.584 15.8878C244.726 15.3955 244.429 14.8802 243.922 14.7349Z" fill="#F8FAFC"/>
<path d="M242.77 13.1123C243.168 13.2253 243.58 13.0061 243.69 12.6213C243.802 12.2366 243.569 11.8317 243.172 11.7187C242.774 11.6057 242.363 11.8249 242.252 12.2097C242.141 12.5944 242.373 12.9993 242.77 13.1123Z" fill="#F8FAFC"/>
<path d="M241.609 10.7344C241.927 10.8258 242.255 10.6496 242.344 10.3429C242.433 10.0348 242.247 9.71196 241.93 9.62183C241.612 9.5317 241.284 9.70658 241.195 10.0146C241.106 10.3214 241.292 10.6442 241.609 10.7344Z" fill="#F8FAFC"/>
<path d="M240.723 7.93097C240.477 7.86101 240.221 7.99688 240.152 8.23634C240.084 8.47445 240.228 8.72601 240.474 8.79596C240.72 8.86592 240.976 8.73005 241.046 8.49059C241.114 8.25248 240.97 8.00092 240.723 7.93097Z" fill="#F8FAFC"/>
<path d="M217.95 12.2115C217.813 12.6863 218.1 13.1854 218.589 13.3253C219.08 13.4652 219.587 13.1935 219.725 12.7186C219.861 12.2438 219.575 11.746 219.084 11.6061C218.595 11.4662 218.086 11.7379 217.95 12.2115Z" fill="#00C1E3"/>
<path d="M217.257 15.6883C217.654 15.8013 218.066 15.582 218.176 15.1973C218.257 14.9188 218.156 14.6282 217.942 14.4493C217.918 14.4278 217.892 14.4089 217.864 14.3901C217.802 14.3511 217.733 14.3188 217.658 14.2973C217.261 14.1843 216.851 14.4036 216.739 14.7883C216.629 15.1717 216.862 15.5753 217.257 15.6883Z" fill="#00C1E3"/>
<path d="M216.785 17.2473C216.697 17.5527 216.88 17.8729 217.196 17.963C217.511 18.0531 217.838 17.8782 217.925 17.5729C218.014 17.2675 217.83 16.9473 217.514 16.8572C217.199 16.7671 216.872 16.9419 216.785 17.2473Z" fill="#00C1E3"/>
<path d="M218.369 19.7297C218.455 19.4311 218.275 19.1163 217.965 19.0288C217.657 18.9401 217.336 19.1109 217.25 19.4109C217.163 19.7095 217.344 20.0243 217.653 20.1118C217.963 20.2006 218.283 20.0297 218.369 19.7297Z" fill="#00C1E3"/>
<path d="M219.119 21.515C219.186 21.2809 219.045 21.0334 218.801 20.9648C218.559 20.8962 218.308 21.0294 218.24 21.2648C218.173 21.5002 218.314 21.7464 218.557 21.815C218.8 21.8849 219.05 21.7504 219.119 21.515Z" fill="#00C1E3"/>
<path d="M219.358 22.458C219.304 22.6463 219.417 22.8428 219.611 22.8979C219.804 22.9531 220.005 22.8454 220.059 22.6584C220.113 22.4715 220 22.2737 219.806 22.2186C219.612 22.1634 219.412 22.271 219.358 22.458Z" fill="#00C1E3"/>
<path d="M220.738 23.2184C220.587 23.1753 220.431 23.2587 220.39 23.404C220.348 23.5506 220.435 23.704 220.586 23.747C220.737 23.7901 220.893 23.7067 220.934 23.5601C220.976 23.4148 220.889 23.2614 220.738 23.2184Z" fill="#00C1E3"/>
<path d="M221.638 24.0153C221.522 23.983 221.402 24.0462 221.37 24.1592C221.338 24.2709 221.405 24.3879 221.521 24.4215C221.637 24.4538 221.756 24.3906 221.789 24.2776C221.821 24.1659 221.754 24.0489 221.638 24.0153Z" fill="#00C1E3"/>
<path d="M222.307 24.6513C222.284 24.7294 222.331 24.8128 222.413 24.8356C222.494 24.8585 222.579 24.8141 222.602 24.7347C222.625 24.6567 222.576 24.5733 222.495 24.5504C222.413 24.5262 222.329 24.572 222.307 24.6513Z" fill="#00C1E3"/>
<path d="M235.506 12.2007C235.642 11.7258 235.356 11.228 234.866 11.0881C234.376 10.9482 233.868 11.2186 233.732 11.6935C233.595 12.1684 233.881 12.6675 234.371 12.8074C234.86 12.9473 235.369 12.6755 235.506 12.2007Z" fill="#F8FAFC"/>
<path d="M233.182 10.1023C233.577 10.2153 233.989 9.99606 234.099 9.61132C234.211 9.22792 233.978 8.82435 233.583 8.71135C233.186 8.597 232.774 8.81762 232.664 9.20102C232.552 9.58576 232.785 9.98934 233.182 10.1023Z" fill="#F8FAFC"/>
<path d="M230.69 7.94458C230.601 8.24996 230.785 8.57013 231.101 8.66026C231.416 8.75039 231.743 8.57551 231.831 8.27014C231.918 7.96476 231.734 7.64459 231.419 7.55446C231.104 7.46433 230.777 7.63921 230.69 7.94458Z" fill="#F8FAFC"/>
<path d="M228.949 7.9565C229.258 8.04528 229.579 7.87444 229.665 7.57444C229.751 7.2758 229.57 6.96101 229.261 6.87357C228.952 6.78478 228.631 6.95563 228.545 7.25562C228.459 7.55427 228.64 7.86906 228.949 7.9565Z" fill="#F8FAFC"/>
<path d="M227.5 7.36608C227.568 7.132 227.425 6.88582 227.183 6.81587C226.941 6.74726 226.689 6.88044 226.622 7.11586C226.555 7.35128 226.696 7.59746 226.938 7.66607C227.18 7.73602 227.432 7.6015 227.5 7.36608Z" fill="#F8FAFC"/>
<path d="M225.872 7.63036C225.926 7.44337 225.813 7.24697 225.619 7.19181C225.425 7.13665 225.225 7.24293 225.171 7.42992C225.117 7.61826 225.23 7.81466 225.424 7.86982C225.616 7.92497 225.817 7.81735 225.872 7.63036Z" fill="#F8FAFC"/>
<path d="M224.32 7.61387C224.169 7.57082 224.013 7.65423 223.972 7.79952C223.93 7.94615 224.017 8.09816 224.168 8.14121C224.319 8.18426 224.475 8.10085 224.518 7.95557C224.56 7.80893 224.471 7.65692 224.32 7.61387Z" fill="#F8FAFC"/>
<path d="M223.088 8.49184C223.204 8.52412 223.324 8.4609 223.356 8.34789C223.387 8.23624 223.32 8.1192 223.204 8.08557C223.09 8.05328 222.969 8.11651 222.936 8.22951C222.905 8.34117 222.973 8.4582 223.088 8.49184Z" fill="#F8FAFC"/>
<path d="M222.16 8.75143C222.137 8.8308 222.184 8.91286 222.266 8.93573C222.348 8.95994 222.432 8.9142 222.454 8.83483C222.477 8.75681 222.43 8.6734 222.348 8.65053C222.267 8.62766 222.183 8.67206 222.16 8.75143Z" fill="#F8FAFC"/>
<path d="M229.523 26.1669C229.659 25.692 229.373 25.1942 228.883 25.0543C228.393 24.9144 227.885 25.1862 227.749 25.661C227.612 26.1346 227.898 26.6337 228.388 26.7736C228.878 26.9135 229.386 26.6417 229.523 26.1669Z" fill="#F8FAFC"/>
<path d="M231.398 25.1767C231.001 25.0623 230.59 25.283 230.479 25.6664C230.368 26.0511 230.6 26.4547 230.997 26.5677C231.394 26.6807 231.804 26.4614 231.916 26.0767C232.026 25.6919 231.794 25.2897 231.398 25.1767Z" fill="#F8FAFC"/>
<path d="M233.526 24.1565C233.211 24.0664 232.884 24.2413 232.797 24.5466C232.708 24.852 232.892 25.1722 233.207 25.2623C233.523 25.3524 233.85 25.1776 233.937 24.8722C234.025 24.5668 233.84 24.2466 233.526 24.1565Z" fill="#F8FAFC"/>
<path d="M235.16 22.6742C234.852 22.5868 234.531 22.7577 234.445 23.0563C234.359 23.3563 234.539 23.6697 234.848 23.7585C235.158 23.8473 235.478 23.6751 235.564 23.3765C235.65 23.0765 235.47 22.763 235.16 22.6742Z" fill="#F8FAFC"/>
<path d="M236.243 21.1357C236.001 21.0657 235.749 21.2003 235.682 21.4357C235.615 21.6698 235.756 21.9173 235.998 21.9859C236.24 22.0558 236.492 21.9213 236.561 21.6859C236.628 21.4518 236.487 21.2043 236.243 21.1357Z" fill="#F8FAFC"/>
<path d="M236.683 19.7679C236.489 19.7127 236.289 19.8203 236.235 20.0073C236.181 20.1957 236.294 20.3921 236.488 20.4472C236.497 20.4499 236.507 20.4513 236.515 20.4526H236.516C236.575 20.4661 236.634 20.4634 236.688 20.4486C236.804 20.4163 236.901 20.3288 236.936 20.2078C236.99 20.0208 236.877 19.8244 236.683 19.7679Z" fill="#F8FAFC"/>
<path d="M236.954 18.5797C236.803 18.5366 236.647 18.62 236.606 18.7667C236.563 18.912 236.651 19.0653 236.802 19.1084C236.953 19.1514 237.109 19.068 237.15 18.9214C237.192 18.7761 237.105 18.6227 236.954 18.5797Z" fill="#F8FAFC"/>
<path d="M237.082 17.504C236.967 17.4704 236.847 17.535 236.815 17.6466C236.782 17.7583 236.85 17.8767 236.965 17.909C237.081 17.9426 237.201 17.878 237.233 17.7664C237.265 17.6547 237.198 17.5363 237.082 17.504Z" fill="#F8FAFC"/>
<path d="M236.924 16.8845C237.006 16.9087 237.09 16.8629 237.112 16.7836C237.135 16.7055 237.088 16.6221 237.006 16.5993C236.925 16.575 236.841 16.6208 236.818 16.7002C236.795 16.7782 236.842 16.8616 236.924 16.8845Z" fill="#F8FAFC"/>
</svg>
