<svg width="924" height="891" viewBox="0 0 924 891" fill="none" xmlns="http://www.w3.org/2000/svg">
<path d="M565.569 60.6401C571.654 39.4157 558.86 17.1283 536.976 10.8966C515.055 4.62825 492.365 16.7617 486.243 37.9861C480.121 59.2105 492.915 81.4613 514.836 87.7297C536.72 93.9613 559.447 81.8645 565.569 60.6401Z" fill="#00C1E3"/>
<path d="M408.017 1.32907C390.275 -3.72959 371.873 6.09448 366.924 23.2866C361.975 40.4787 372.349 58.4773 390.091 63.5726C407.833 68.6313 426.198 58.8072 431.147 41.6151C436.096 24.423 425.759 6.4244 408.017 1.32907Z" fill="#00C1E3"/>
<path d="M316.375 63.2428C320.297 49.5697 312.086 35.2735 297.973 31.2412C283.897 27.2089 269.307 35.0169 265.348 48.6533C261.426 62.3263 269.674 76.6226 283.75 80.6548C297.826 84.6871 312.452 76.8792 316.375 63.2428Z" fill="#00C1E3"/>
<path d="M194.124 124.167C207.944 128.126 222.277 120.464 226.126 107.084C229.975 93.7047 221.91 79.6284 208.09 75.7061C194.271 71.7472 179.938 79.4085 176.089 92.7883C172.24 106.168 180.304 120.208 194.124 124.167Z" fill="#00C1E3"/>
<path d="M151.418 162.803C154.424 152.319 148.119 141.322 137.268 138.243C126.455 135.127 115.237 141.139 112.231 151.623C109.189 162.107 115.531 173.104 126.345 176.22C137.158 179.299 148.412 173.287 151.418 162.803Z" fill="#00C1E3"/>
<path d="M779.389 195.904C784.557 197.371 789.909 194.511 791.339 189.526C792.805 184.541 789.763 179.262 784.594 177.796C779.462 176.33 774.11 179.189 772.644 184.174C771.214 189.196 774.22 194.438 779.389 195.904Z" fill="white"/>
<path d="M755.488 159.614C756.478 156.058 754.352 152.356 750.723 151.33C747.057 150.266 743.281 152.319 742.255 155.838C741.265 159.357 743.392 163.096 747.021 164.123C750.686 165.149 754.462 163.133 755.488 159.614Z" fill="white"/>
<path d="M80.8534 604.153C86.9751 582.965 74.145 560.678 52.2608 554.41C30.3399 548.178 7.64935 560.311 1.52763 581.536C-4.59408 602.724 8.23604 625.011 30.1203 631.243C52.0411 637.511 74.7317 625.378 80.8534 604.153Z" fill="#00C1E3"/>
<path d="M93.1697 669.769C75.4644 664.674 57.0627 674.498 52.114 691.69C47.1653 708.882 57.5391 726.918 75.281 731.976C93.023 737.035 111.388 727.211 116.337 710.019C121.285 692.863 110.912 674.828 93.1697 669.769Z" fill="#00C1E3"/>
<path d="M166.558 756.866C152.481 752.871 137.892 760.679 133.969 774.315C130.011 787.951 138.258 802.284 152.335 806.317C166.448 810.312 181.037 802.504 184.959 788.868C188.882 775.231 180.671 760.899 166.558 756.866Z" fill="#00C1E3"/>
<path d="M250.832 812.695C236.976 808.736 222.679 816.397 218.794 829.777C214.945 843.157 223.046 857.233 236.865 861.155C250.685 865.114 265.018 857.453 268.867 844.073C272.716 830.694 264.652 816.617 250.832 812.695Z" fill="#00C1E3"/>
<path d="M335.4 849.608C324.586 846.493 313.369 852.504 310.326 862.988C307.32 873.472 313.662 884.469 324.476 887.548C335.29 890.664 346.507 884.652 349.549 874.169C352.555 863.685 346.25 852.688 335.4 849.608Z" fill="#00C1E3"/>
<path d="M404.389 859.286C395.738 856.793 386.793 861.595 384.374 869.953C381.954 878.348 387.013 887.109 395.664 889.601C404.315 892.057 413.26 887.292 415.679 878.897C418.098 870.54 413.04 861.742 404.389 859.286Z" fill="#00C1E3"/>
<path d="M463.04 863.062C456.331 861.155 449.367 864.858 447.497 871.383C445.628 877.871 449.55 884.726 456.258 886.632C462.966 888.538 469.931 884.836 471.837 878.311C473.707 871.823 469.785 864.968 463.04 863.062Z" fill="#00C1E3"/>
<path d="M514.799 861.265C509.63 859.799 504.278 862.658 502.848 867.644C501.419 872.629 504.424 877.908 509.593 879.374C514.762 880.84 520.114 877.981 521.543 872.996C522.973 867.974 519.967 862.732 514.799 861.265Z" fill="#00C1E3"/>
<path d="M556.588 852.321C552.922 851.258 549.146 853.274 548.12 856.83C547.094 860.349 549.256 864.051 552.886 865.114C556.551 866.141 560.327 864.125 561.353 860.606C562.343 857.05 560.217 853.347 556.588 852.321Z" fill="#00C1E3"/>
<path d="M88.8814 228.969C97.5325 231.462 106.514 226.66 108.896 218.302C111.316 209.907 106.257 201.11 97.6425 198.654C88.9914 196.198 80.0106 200.963 77.5912 209.358C75.2085 217.715 80.2304 226.513 88.8814 228.969Z" fill="#00C1E3"/>
<path d="M61.2054 276.037C67.9137 277.943 74.8785 274.204 76.748 267.715C78.6175 261.19 74.6951 254.372 67.9869 252.466C61.2787 250.523 54.3138 254.262 52.4077 260.751C50.5382 267.276 54.4606 274.094 61.2054 276.037Z" fill="#00C1E3"/>
<path d="M41.1179 320.208C46.2865 321.675 51.638 318.815 53.0677 313.83C54.4973 308.808 51.4915 303.566 46.3229 302.1C41.1543 300.633 35.839 303.493 34.3727 308.478C32.9431 313.463 35.9493 318.742 41.1179 320.208Z" fill="#00C1E3"/>
<path d="M32.1 359.468C35.7656 360.531 39.5415 358.515 40.5679 354.959C41.5577 351.44 39.4314 347.738 35.8023 346.675C32.1366 345.648 28.3612 347.664 27.3348 351.183C26.3084 354.739 28.4709 358.441 32.1 359.468Z" fill="#00C1E3"/>
<path d="M796.251 680.766C774.331 674.498 751.64 686.632 745.518 707.856C739.396 729.044 752.19 751.331 774.11 757.599C796.031 763.831 818.722 751.698 824.844 730.473C830.929 709.286 818.136 686.998 796.251 680.766Z" fill="white"/>
<path d="M874.478 596.675C856.736 591.617 838.37 601.441 833.422 618.633C828.473 635.788 838.847 653.824 856.552 658.882C874.294 663.941 892.696 654.117 897.645 636.961C902.593 619.769 892.22 601.734 874.478 596.675Z" fill="white"/>
<path d="M902.41 499.278C888.333 495.245 873.744 503.053 869.785 516.69C865.862 530.326 874.11 544.659 888.187 548.691C902.263 552.724 916.889 544.916 920.811 531.243C924.734 517.606 916.523 503.273 902.41 499.278Z" fill="white"/>
<path d="M904.939 401.477C891.119 397.554 876.787 405.216 872.938 418.596C869.089 431.975 877.153 446.015 890.973 449.974C904.793 453.933 919.126 446.272 922.975 432.892C926.86 419.475 918.759 405.436 904.939 401.477Z" fill="white"/>
<path d="M873.562 357.268C884.412 360.348 895.629 354.373 898.635 343.889C901.677 333.405 895.336 322.371 884.522 319.292C873.672 316.213 862.455 322.188 859.449 332.672C856.406 343.156 862.748 354.189 873.562 357.268Z" fill="white"/>
<path d="M841.889 292.495C850.54 294.988 859.484 290.186 861.904 281.828C864.323 273.434 859.265 264.636 850.614 262.18C841.963 259.724 833.018 264.49 830.599 272.884C828.18 281.242 833.238 290.039 841.889 292.495Z" fill="white"/>
<path d="M817.769 216.102C811.061 214.196 804.095 217.899 802.226 224.424C800.356 230.912 804.279 237.767 810.987 239.673C817.695 241.579 824.66 237.877 826.566 231.352C828.436 224.863 824.514 218.009 817.769 216.102Z" fill="white"/>
<path d="M197.24 332.745C193.501 345.685 201.309 359.285 214.652 363.097C228.032 366.909 241.851 359.505 245.59 346.565C249.293 333.625 241.521 320.062 228.142 316.249C214.798 312.437 200.942 319.842 197.24 332.745Z" fill="#00C1E3"/>
<path d="M178.361 427.467C189.175 430.546 200.392 424.571 203.398 414.087C205.597 406.499 202.848 398.581 197.019 393.706C196.359 393.119 195.663 392.606 194.893 392.093C193.207 391.03 191.337 390.15 189.285 389.563C178.471 386.484 167.291 392.459 164.248 402.943C161.242 413.39 167.584 424.387 178.361 427.467Z" fill="#00C1E3"/>
<path d="M165.458 469.952C163.075 478.273 168.061 486.998 176.675 489.454C185.253 491.91 194.16 487.144 196.543 478.823C198.963 470.502 193.941 461.778 185.326 459.322C176.749 456.866 167.841 461.631 165.458 469.952Z" fill="#00C1E3"/>
<path d="M208.676 537.621C211.022 529.483 206.11 520.905 197.679 518.522C189.284 516.103 180.523 520.759 178.177 528.933C175.831 537.071 180.743 545.649 189.174 548.031C197.605 550.451 206.33 545.795 208.676 537.621Z" fill="#00C1E3"/>
<path d="M229.058 586.228C230.89 579.85 227.041 573.105 220.407 571.235C213.808 569.366 206.954 572.995 205.121 579.41C203.288 585.825 207.137 592.533 213.735 594.402C220.37 596.309 227.188 592.643 229.058 586.228Z" fill="#00C1E3"/>
<path d="M235.62 611.961C234.153 617.093 237.233 622.445 242.511 623.948C247.79 625.451 253.252 622.518 254.718 617.423C256.184 612.328 253.105 606.939 247.826 605.436C242.548 603.933 237.086 606.866 235.62 611.961Z" fill="#00C1E3"/>
<path d="M273.156 632.672C269.051 631.499 264.799 633.772 263.662 637.731C262.526 641.727 264.909 645.906 269.014 647.079C273.12 648.252 277.372 645.979 278.508 641.983C279.645 638.024 277.262 633.845 273.156 632.672Z" fill="#00C1E3"/>
<path d="M297.68 654.41C294.527 653.53 291.265 655.253 290.385 658.332C289.505 661.375 291.338 664.564 294.491 665.48C297.643 666.36 300.906 664.637 301.785 661.558C302.665 658.516 300.832 655.326 297.68 654.41Z" fill="#00C1E3"/>
<path d="M315.862 671.712C315.239 673.838 316.522 676.111 318.758 676.734C320.958 677.357 323.267 676.148 323.89 673.985C324.513 671.859 323.194 669.586 320.994 668.963C318.758 668.303 316.449 669.549 315.862 671.712Z" fill="#00C1E3"/>
<path d="M675.577 332.415C679.279 319.475 671.471 305.912 658.128 302.1C644.785 298.287 630.928 305.655 627.226 318.595C623.487 331.535 631.295 345.135 644.638 348.947C657.981 352.76 671.838 345.355 675.577 332.415Z" fill="white"/>
<path d="M612.269 275.23C623.047 278.309 634.263 272.334 637.269 261.85C640.312 251.403 633.97 240.406 623.193 237.327C612.379 234.211 601.163 240.223 598.157 250.67C595.114 261.154 601.456 272.151 612.269 275.23Z" fill="white"/>
<path d="M544.418 216.469C541.999 224.79 547.021 233.514 555.635 235.971C564.213 238.427 573.12 233.661 575.503 225.34C577.886 217.019 572.864 208.294 564.286 205.838C555.709 203.382 546.801 208.148 544.418 216.469Z" fill="white"/>
<path d="M496.947 216.762C505.378 219.182 514.102 214.526 516.448 206.352C518.794 198.214 513.882 189.636 505.451 187.253C497.02 184.834 488.296 189.489 485.95 197.664C483.604 205.802 488.516 214.38 496.947 216.762Z" fill="white"/>
<path d="M457.467 200.706C459.3 194.328 455.414 187.62 448.816 185.714C442.218 183.844 435.363 187.473 433.53 193.888C431.697 200.303 435.546 207.011 442.144 208.881C448.743 210.787 455.598 207.121 457.467 200.706Z" fill="white"/>
<path d="M413.113 207.928C414.579 202.833 411.5 197.481 406.221 195.978C400.943 194.475 395.481 197.371 394.014 202.466C392.548 207.598 395.627 212.95 400.906 214.453C406.148 215.956 411.61 213.023 413.113 207.928Z" fill="white"/>
<path d="M370.7 207.451C366.595 206.278 362.343 208.551 361.206 212.51C360.07 216.506 362.452 220.648 366.558 221.821C370.664 222.994 374.916 220.721 376.089 216.762C377.225 212.767 374.806 208.624 370.7 207.451Z" fill="white"/>
<path d="M337.159 231.352C340.311 232.231 343.574 230.509 344.454 227.429C345.297 224.387 343.464 221.198 340.312 220.281C337.196 219.402 333.896 221.124 333.017 224.204C332.173 227.246 334.006 230.435 337.159 231.352Z" fill="white"/>
<path d="M311.866 238.426C311.243 240.589 312.526 242.825 314.762 243.448C316.998 244.108 319.271 242.862 319.894 240.699C320.517 238.573 319.234 236.3 316.998 235.677C314.798 235.054 312.489 236.264 311.866 238.426Z" fill="white"/>
<path d="M512.563 712.988C516.265 700.048 508.457 686.485 495.114 682.673C481.771 678.86 467.915 686.265 464.212 699.205C460.473 712.108 468.281 725.708 481.624 729.52C494.967 733.332 508.824 725.928 512.563 712.988Z" fill="white"/>
<path d="M563.663 686.008C552.849 682.893 541.632 688.904 538.627 699.351C535.584 709.835 541.926 720.832 552.739 723.912C563.553 726.991 574.733 721.016 577.776 710.532C580.782 700.048 574.44 689.088 563.663 686.008Z" fill="white"/>
<path d="M621.544 658.222C612.966 655.766 604.059 660.532 601.676 668.853C599.257 677.174 604.279 685.898 612.856 688.354C621.471 690.811 630.378 686.045 632.761 677.724C635.144 669.403 630.122 660.678 621.544 658.222Z" fill="white"/>
<path d="M666.156 617.863C657.761 615.48 649 620.136 646.654 628.274C644.308 636.448 649.22 644.989 657.651 647.409C666.083 649.828 674.807 645.136 677.153 636.998C679.499 628.824 674.587 620.282 666.156 617.863Z" fill="white"/>
<path d="M695.665 575.927C689.066 574.021 682.211 577.687 680.378 584.102C678.546 590.48 682.395 597.225 688.993 599.095C695.591 601.001 702.446 597.335 704.316 590.92C706.148 584.542 702.299 577.797 695.665 575.927Z" fill="white"/>
<path d="M707.651 538.611C702.373 537.108 696.911 540.04 695.445 545.136C693.979 550.268 697.057 555.619 702.336 557.122C702.593 557.196 702.849 557.232 703.069 557.269H703.106C704.719 557.636 706.332 557.562 707.798 557.159C710.951 556.279 713.59 553.897 714.543 550.597C716.009 545.502 712.93 540.15 707.651 538.611Z" fill="white"/>
<path d="M715.019 506.279C710.914 505.106 706.662 507.379 705.525 511.374C704.352 515.333 706.771 519.512 710.877 520.685C714.983 521.858 719.235 519.586 720.371 515.59C721.507 511.631 719.125 507.452 715.019 506.279Z" fill="white"/>
<path d="M718.539 476.954C715.386 476.037 712.124 477.797 711.244 480.839C710.365 483.882 712.197 487.108 715.35 487.987C718.502 488.904 721.765 487.144 722.645 484.102C723.524 481.059 721.691 477.833 718.539 476.954Z" fill="white"/>
<path d="M714.25 460.055C716.486 460.715 718.758 459.468 719.382 457.305C720.005 455.179 718.722 452.907 716.486 452.283C714.287 451.624 711.977 452.87 711.354 455.033C710.731 457.159 712.013 459.432 714.25 460.055Z" fill="white"/>
</svg>
